name ./resultDataOpenSim/trcMotMarkerGrf/sub10/grf-05-07.mot
datacolumns 19
datarows 25
range 0.51200000 0.60800000
endheader

                time	     ground_force_vx	     ground_force_vy	     ground_force_vz	     ground_force_px	     ground_force_py	     ground_force_pz	   l_ground_force_vx	   l_ground_force_vy	   l_ground_force_vz	   l_ground_force_px	   l_ground_force_py	   l_ground_force_pz	     ground_torque_x	     ground_torque_y	     ground_torque_z	   l_ground_torque_x	   l_ground_torque_y	   l_ground_torque_z	
          0.51200000	         45.07614239	        439.52775748	        -23.72287104	         -0.74337485	          0.00000000	          0.04396986	          0.00000000	          0.00000000	          0.00000000	          0.00000000	          0.00000000	          0.00000000	          0.00000000	          3.55494932	          0.00000000	          0.00000000	          0.00000000	          0.00000000	
          0.51600000	         47.06117483	        441.68331545	        -24.11287962	         -0.74257145	          0.00000000	          0.04391471	          0.00000000	          0.00000000	          0.00000000	          0.00000000	          0.00000000	          0.00000000	          0.00000000	          3.68033057	          0.00000000	          0.00000000	          0.00000000	          0.00000000	
          0.52000000	         48.68306470	        444.69698266	        -24.89314156	         -0.74150364	          0.00000000	          0.04388955	          0.00000000	          0.00000000	          0.00000000	          0.00000000	          0.00000000	          0.00000000	          0.00000000	          3.78492142	          0.00000000	          0.00000000	          0.00000000	          0.00000000	
          0.52400000	         49.93032150	        448.59801915	        -26.01085285	         -0.74019110	          0.00000000	          0.04389183	          0.00000000	          0.00000000	          0.00000000	          0.00000000	          0.00000000	          0.00000000	          0.00000000	          3.87555601	          0.00000000	          0.00000000	          0.00000000	          0.00000000	
          0.52800000	         50.82837792	        453.38084971	        -27.35116339	         -0.73866686	          0.00000000	          0.04391519	          0.00000000	          0.00000000	          0.00000000	          0.00000000	          0.00000000	          0.00000000	          0.00000000	          3.96575973	          0.00000000	          0.00000000	          0.00000000	          0.00000000	
          0.53200000	         51.44208784	        459.04309968	        -28.77014949	         -0.73697662	          0.00000000	          0.04394730	          0.00000000	          0.00000000	          0.00000000	          0.00000000	          0.00000000	          0.00000000	          0.00000000	          4.07242274	          0.00000000	          0.00000000	          0.00000000	          0.00000000	
          0.53600000	         51.86391834	        465.60631447	        -30.12903280	         -0.73517473	          0.00000000	          0.04398056	          0.00000000	          0.00000000	          0.00000000	          0.00000000	          0.00000000	          0.00000000	          0.00000000	          4.21159005	          0.00000000	          0.00000000	          0.00000000	          0.00000000	
          0.54000000	         52.19519686	        473.10109689	        -31.32536276	         -0.73331869	          0.00000000	          0.04401188	          0.00000000	          0.00000000	          0.00000000	          0.00000000	          0.00000000	          0.00000000	          0.00000000	          4.39432505	          0.00000000	          0.00000000	          0.00000000	          0.00000000	
          0.54400000	         52.53072361	        481.51880359	        -32.31520111	         -0.73145340	          0.00000000	          0.04404159	          0.00000000	          0.00000000	          0.00000000	          0.00000000	          0.00000000	          0.00000000	          0.00000000	          4.62362228	          0.00000000	          0.00000000	          0.00000000	          0.00000000	
          0.54800000	         52.94942894	        490.76765995	        -33.12227272	         -0.72959346	          0.00000000	          0.04407737	          0.00000000	          0.00000000	          0.00000000	          0.00000000	          0.00000000	          0.00000000	          0.00000000	          4.89311273	          0.00000000	          0.00000000	          0.00000000	          0.00000000	
          0.55200000	         53.50823241	        500.68188631	        -33.83275608	         -0.72773215	          0.00000000	          0.04412749	          0.00000000	          0.00000000	          0.00000000	          0.00000000	          0.00000000	          0.00000000	          0.00000000	          5.18784344	          0.00000000	          0.00000000	          0.00000000	          0.00000000	
          0.55600000	         54.23842216	        511.07325529	        -34.57488415	         -0.72586161	          0.00000000	          0.04419280	          0.00000000	          0.00000000	          0.00000000	          0.00000000	          0.00000000	          0.00000000	          0.00000000	          5.48685264	          0.00000000	          0.00000000	          0.00000000	          0.00000000	
          0.56000000	         55.14803644	        521.77444161	        -35.48701275	         -0.72398199	          0.00000000	          0.04426757	          0.00000000	          0.00000000	          0.00000000	          0.00000000	          0.00000000	          0.00000000	          0.00000000	          5.76682518	          0.00000000	          0.00000000	          0.00000000	          0.00000000	
          0.56400000	         56.23282163	        532.65322039	        -36.68294179	         -0.72210503	          0.00000000	          0.04434419	          0.00000000	          0.00000000	          0.00000000	          0.00000000	          0.00000000	          0.00000000	          0.00000000	          6.00595949	          0.00000000	          0.00000000	          0.00000000	          0.00000000	
          0.56800000	         57.49442637	        543.60831977	        -38.22415642	         -0.72025538	          0.00000000	          0.04441758	          0.00000000	          0.00000000	          0.00000000	          0.00000000	          0.00000000	          0.00000000	          0.00000000	          6.18729035	          0.00000000	          0.00000000	          0.00000000	          0.00000000	
          0.57200000	         58.96017099	        554.56090876	        -40.10647488	         -0.71846606	          0.00000000	          0.04448627	          0.00000000	          0.00000000	          0.00000000	          0.00000000	          0.00000000	          0.00000000	          0.00000000	          6.30095502	          0.00000000	          0.00000000	          0.00000000	          0.00000000	
          0.57600000	         60.69526675	        565.44545253	        -42.26312476	         -0.71677136	          0.00000000	          0.04455075	          0.00000000	          0.00000000	          0.00000000	          0.00000000	          0.00000000	          0.00000000	          0.00000000	          6.34514476	          0.00000000	          0.00000000	          0.00000000	          0.00000000	
          0.58000000	         62.80018622	        576.19444484	        -44.58025000	         -0.71519997	          0.00000000	          0.04461065	          0.00000000	          0.00000000	          0.00000000	          0.00000000	          0.00000000	          0.00000000	          0.00000000	          6.32572393	          0.00000000	          0.00000000	          0.00000000	          0.00000000	
          0.58400000	         65.39325012	        586.72327382	        -46.92039878	         -0.71377008	          0.00000000	          0.04465993	          0.00000000	          0.00000000	          0.00000000	          0.00000000	          0.00000000	          0.00000000	          0.00000000	          6.25473761	          0.00000000	          0.00000000	          0.00000000	          0.00000000	
          0.58800000	         68.58602701	        596.93547189	        -49.14816157	         -0.71248972	          0.00000000	          0.04468767	          0.00000000	          0.00000000	          0.00000000	          0.00000000	          0.00000000	          0.00000000	          0.00000000	          6.14824121	          0.00000000	          0.00000000	          0.00000000	          0.00000000	
          0.59200000	         72.45856531	        606.74463035	        -51.14535521	         -0.71136307	          0.00000000	          0.04468083	          0.00000000	          0.00000000	          0.00000000	          0.00000000	          0.00000000	          0.00000000	          0.00000000	          6.02399835	          0.00000000	          0.00000000	          0.00000000	          0.00000000	
          0.59600000	         77.03716518	        616.08396005	        -52.80706152	         -0.71039398	          0.00000000	          0.04462802	          0.00000000	          0.00000000	          0.00000000	          0.00000000	          0.00000000	          0.00000000	          0.00000000	          5.89952914	          0.00000000	          0.00000000	          0.00000000	          0.00000000	
          0.60000000	         82.28011442	        624.89685515	        -54.02794907	         -0.70957644	          0.00000000	          0.04452221	          0.00000000	          0.00000000	          0.00000000	          0.00000000	          0.00000000	          0.00000000	          0.00000000	          5.79074846	          0.00000000	          0.00000000	          0.00000000	          0.00000000	
          0.60400000	         88.07721722	        633.13587861	        -54.70351589	         -0.70888888	          0.00000000	          0.04435136	          0.00000000	          0.00000000	          0.00000000	          0.00000000	          0.00000000	          0.00000000	          0.00000000	          5.71112052	          0.00000000	          0.00000000	          0.00000000	          0.00000000	
          0.60800000	         94.26988983	        640.78245129	        -54.76295800	         -0.70830333	          0.00000000	          0.04410324	          0.00000000	          0.00000000	          0.00000000	          0.00000000	          0.00000000	          0.00000000	          0.00000000	          5.67105012	          0.00000000	          0.00000000	          0.00000000	          0.00000000	
